<svg aria-hidden="true" style="position: absolute; width: 0; height: 0; overflow: hidden;" version="1.1" xmlns="http://www.w3.org/2000/svg" xmlns:xlink="http://www.w3.org/1999/xlink">
<defs>
<symbol id="icon-facebook-1-1" viewBox="0 0 32 32">
<path  d="M21.33 5.314h2.92v-5.088c-1.238-0.144-2.672-0.226-4.125-0.226-0.046 0-0.092 0-0.138 0l0.007-0c-4.212 0-7.094 2.65-7.094 7.52v4.48h-4.65v5.688h4.648v14.312h5.698v-14.31h4.46l0.708-5.69h-5.17v-3.92c0.002-1.644 0.444-2.768 2.736-2.768z"></path>
</symbol>
<symbol id="icon-instagram-2-1" viewBox="0 0 32 32">
<path  d="M31.968 9.408c-0.074-1.7-0.35-2.87-0.744-3.882-0.424-1.112-1.053-2.060-1.849-2.839l-0.001-0.001c-0.78-0.791-1.724-1.417-2.778-1.824l-0.054-0.018c-1.020-0.394-2.18-0.67-3.88-0.744-1.716-0.080-2.262-0.1-6.602-0.1-4.346 0-4.89 0.020-6.596 0.094-1.7 0.074-2.868 0.35-3.88 0.744-1.112 0.424-2.060 1.053-2.839 1.849l-0.001 0.001c-0.792 0.78-1.419 1.724-1.826 2.778l-0.018 0.054c-0.394 1.020-0.668 2.18-0.744 3.88-0.080 1.714-0.1 2.26-0.1 6.602 0 4.346 0.020 4.89 0.094 6.596 0.074 1.7 0.35 2.87 0.744 3.882 0.406 1.076 1.038 2.038 1.85 2.838 0.8 0.812 1.77 1.444 2.832 1.844 1.020 0.394 2.18 0.67 3.882 0.744 1.706 0.076 2.25 0.094 6.596 0.094 4.344 0 4.888-0.020 6.594-0.094 1.7-0.074 2.87-0.35 3.882-0.744 2.157-0.85 3.832-2.525 4.663-4.627l0.019-0.055c0.394-1.020 0.67-2.18 0.744-3.882 0.076-1.706 0.094-2.25 0.094-6.596 0-4.344-0.006-4.888-0.080-6.594zM29.088 22.472c-0.070 1.564-0.332 2.408-0.552 2.97-0.551 1.4-1.638 2.488-3.002 3.027l-0.036 0.013c-0.562 0.218-1.412 0.48-2.968 0.548-1.688 0.076-2.194 0.094-6.464 0.094s-4.782-0.020-6.464-0.094c-1.564-0.068-2.408-0.33-2.97-0.55-0.721-0.269-1.335-0.676-1.837-1.193l-0.001-0.001c-0.516-0.504-0.923-1.118-1.183-1.804l-0.011-0.034c-0.22-0.562-0.48-1.412-0.55-2.968-0.074-1.688-0.094-2.196-0.094-6.464 0-4.27 0.020-4.782 0.094-6.464 0.070-1.564 0.332-2.408 0.55-2.97 0.256-0.694 0.664-1.324 1.2-1.838 0.52-0.532 1.144-0.938 1.84-1.194 0.56-0.22 1.412-0.48 2.968-0.55 1.688-0.074 2.194-0.094 6.464-0.094 4.276 0 4.78 0.020 6.464 0.094 1.562 0.070 2.406 0.332 2.968 0.55 0.694 0.256 1.326 0.662 1.84 1.194 0.53 0.52 0.936 1.144 1.192 1.84 0.22 0.56 0.482 1.41 0.55 2.968 0.076 1.688 0.094 2.194 0.094 6.464s-0.018 4.77-0.092 6.456z"></path>
<path  d="M16.060 7.782c-4.462 0.102-8.041 3.743-8.041 8.22s3.578 8.118 8.031 8.22l0.009 0c4.462-0.102 8.041-3.743 8.041-8.22s-3.578-8.118-8.031-8.22l-0.009-0zM16.060 21.336c-2.946 0-5.334-2.388-5.334-5.334s2.388-5.334 5.334-5.334v0c2.946 0 5.334 2.388 5.334 5.334s-2.388 5.334-5.334 5.334v0zM26.524 7.458c0 1.060-0.86 1.92-1.92 1.92s-1.92-0.86-1.92-1.92v0c0-1.060 0.86-1.92 1.92-1.92s1.92 0.86 1.92 1.92v0z"></path>
</symbol>
<symbol id="icon-linkedin-1-1" viewBox="0 0 32 32">
<path  d="M31.992 32h0.008v-11.74c0-5.74-1.236-10.164-7.948-10.164-3.226 0-5.392 1.772-6.276 3.45h-0.094v-2.912h-6.362v21.366h6.628v-10.58c0-2.784 0.528-5.476 3.976-5.476 3.4 0 3.45 3.178 3.45 5.656v10.4h6.62zM0.528 10.636h6.634v21.364h-6.634v-21.364zM3.842 0c-2.12 0-3.84 1.72-3.84 3.84s1.72 3.88 3.84 3.88c2.122 0 3.844-1.76 3.844-3.88s-1.726-3.84-3.846-3.84z"></path>
</symbol>
<symbol id="icon-twitter-1-1" viewBox="0 0 32 32">
<path  d="M32 6.078c-1.1 0.494-2.376 0.858-3.712 1.029l-0.068 0.007c1.36-0.817 2.381-2.078 2.873-3.58l0.013-0.046c-1.197 0.723-2.591 1.274-4.076 1.574l-0.084 0.014c-1.2-1.279-2.901-2.076-4.788-2.076-3.623 0-6.56 2.937-6.56 6.56v0c0 0.52 0.044 1.020 0.152 1.496-5.468-0.276-10.278-2.878-13.495-6.828l-0.027-0.034c-0.563 0.949-0.895 2.091-0.895 3.311 0 2.264 1.145 4.261 2.888 5.442l0.023 0.015c-1.092-0.030-2.109-0.325-2.997-0.823l0.033 0.017v0.072c0.004 3.164 2.237 5.806 5.213 6.438l0.043 0.008c-0.501 0.137-1.075 0.216-1.669 0.216-0.018 0-0.036-0-0.054-0l0.003 0c-0.031 0.001-0.067 0.001-0.103 0.001-0.403 0-0.796-0.041-1.176-0.119l0.037 0.006c0.873 2.624 3.273 4.496 6.121 4.57l0.009 0c-2.214 1.744-5.044 2.798-8.12 2.798-0.005 0-0.010 0-0.015 0h0.001c-0.538 0-1.054-0.024-1.57-0.090 2.826 1.846 6.287 2.944 10.004 2.944 0.021 0 0.042-0 0.063-0h-0.003c12.072 0 18.672-10 18.672-18.668 0-0.29-0.010-0.57-0.024-0.848 1.299-0.937 2.391-2.066 3.258-3.359l0.030-0.047z"></path>
</symbol>
<symbol id="icon-ctrl" viewBox="0 0 32 32">
<path d="M23 14c-0.278 0-0.555-0.116-0.753-0.341l-6.247-7.14-6.247 7.14c-0.364 0.416-0.995 0.458-1.411 0.094s-0.458-0.995-0.094-1.411l7-8c0.19-0.217 0.464-0.341 0.753-0.341s0.563 0.125 0.753 0.341l7 8c0.364 0.416 0.322 1.047-0.094 1.411-0.19 0.166-0.424 0.247-0.658 0.247z"></path>
</symbol>
<symbol id="icon-close-button" viewBox="0 0 32 32">
<path d="M32 3.224l-3.224-3.224-12.776 12.776-12.776-12.776-3.224 3.224 12.776 12.776-12.776 12.776 3.224 3.224 12.776-12.776 12.776 12.776 3.224-3.224-12.776-12.776 12.776-12.776z"></path>
</symbol>
<symbol id="icon-Food" viewBox="0 0 32 32">
<path  d="M9.667 22.254c-0.852-0.494-1.417-1.401-1.418-2.441v-0c0-4.308 3.504-7.813 7.812-7.813h3.219l0.152-2.5h-18.242l1.31 21.619c0.030 0.494 0.44 0.881 0.936 0.881h5.752c-0.587-0.771-0.94-1.748-0.94-2.807 0-0.002 0-0.004 0-0.006v0c0-1.216 0.776-2.253 1.858-2.645-0.381-0.575-0.607-1.28-0.607-2.039 0-0.001 0-0.003 0-0.004v0c0-0.754 0.224-1.456 0.608-2.044-0.305-0.069-0.474-0.136-0.44-0.202zM10.312 7.626h9.374c0.518 0 0.938-0.42 0.938-0.938s-0.42-0.938-0.938-0.938v0h-7.644l2.527-3.874h3.242c0.518 0 0.938-0.42 0.938-0.938s-0.42-0.938-0.938-0.938v0h-3.75c-0.317 0-0.612 0.16-0.785 0.426l-3.473 5.324h-8.866c-0.518 0-0.938 0.42-0.938 0.938s0.42 0.938 0.938 0.938h9.374z"></path>
<path  d="M10.125 19.813c0 0.518 0.42 0.938 0.938 0.938h20c0.518 0 0.938-0.42 0.938-0.938 0-3.274-2.664-5.938-5.938-5.938h-10c-3.274 0-5.938 2.664-5.938 5.938zM13.25 22.625c-1.036 0-1.875 0.84-1.875 1.875s0.84 1.875 1.875 1.875h15.624c1.036 0 1.875-0.84 1.875-1.875s-0.84-1.875-1.875-1.875h-15.624zM31.062 28.25h-20c-0.518 0-0.938 0.419-0.938 0.937 0.002 1.553 1.26 2.811 2.813 2.813h16.25c1.553-0.002 2.811-1.26 2.813-2.813v-0c0-0.518-0.42-0.938-0.938-0.938z"></path>
</symbol>
<symbol id="icon-Health" viewBox="0 0 36 32">
<path  d="M17.722 2.943c-7.73-6.762-17.558-0.821-17.72 7.232-0.040 2.053 0.552 4.052 1.731 5.895h7.644l1.36-2.266c0.185-0.304 0.514-0.503 0.89-0.503 0.366 0 0.688 0.19 0.874 0.476l0.002 0.004 2.869 4.508 4.182-8.827c0.365-0.77 1.451-0.795 1.854-0.048l3.584 6.656h8.72c6.459-10.094-6.306-21.594-15.99-13.126z"></path>
<path  d="M23.456 17.602l-2.904-5.394-4.107 8.67c-0.171 0.354-0.527 0.593-0.939 0.593-0.367 0-0.689-0.19-0.874-0.477l-0.002-0.004-2.976-4.676-0.797 1.328c-0.188 0.314-0.526 0.505-0.891 0.505h-6.588c0.206 0.216-0.894-0.882 13.613 13.55 0.188 0.187 0.447 0.302 0.733 0.302s0.545-0.116 0.733-0.302l-0 0c14.283-14.21 13.406-13.334 13.613-13.55h-7.696c-0.383 0-0.734-0.21-0.915-0.546z"></path>
</symbol>
<symbol id="icon-Nature" viewBox="0 0 32 32">
<path  d="M15.79 11.716c0.302 0.118 0.597-0.171 0.496-0.478-0.684-2.111-3.164-2.898-5.47-1.026-1.212 0.985-1.668 1.194-1.68 1.2 0.8 0.798 1.714 3.481 3.706 3.778 2.195 0.398 4.138-1.762 2.549-2.75-1.020-0.645-2.261-1.028-3.592-1.028-0.002 0-0.003 0-0.005 0h0c0.452-0.107 0.97-0.168 1.503-0.168 0.897 0 1.753 0.173 2.537 0.488l-0.046-0.016zM25.732 10.212c-3.979-3.232-6.517 1.865-4.939 1.36 0.621-0.207 1.336-0.327 2.079-0.327 0.53 0 1.045 0.061 1.54 0.176l-0.046-0.009c-2.082 0-4 0.954-5.28 2.506 0.105-2.44 0.264-3.968 0.448-5.104 1.064-0.037 2.481-0.896 3.259-2.398 1.342-2.402 0.72-4.864 0.519-6.417-1.048 1.021-5.628-0.176-7.443 2.936-0.802 1.374-0.57 3.046 0.274 4.27 0.267 0.387 0.906 0.202 0.924-0.269 0.079-2.046 1.097-3.59 2.994-4.446-0.791 1.016-1.381 2.23-1.687 3.553l-0.012 0.062c-0.449 1.989-0.918 3.294-1.090 9.632-0 0.009-0 0.020-0 0.031 0 0.627 0.509 1.136 1.136 1.136 0.004 0 0.008-0 0.011-0h-0.001c0.466-0.006 0.864-0.302 1.043-0.731 0.272-0.654 0.716-1.33 1.437-1.95 0.56 0.623 1.368 1.013 2.268 1.013 0.191 0 0.377-0.018 0.558-0.051l-0.019 0.003c1.984-0.296 2.91-2.984 3.706-3.778-0.011-0.005-0.467-0.214-1.68-1.2zM31.582 18.11c-1.243-0.844-2.598-0.242-3.219 0.117l-7.803 5.711h-4.568l-1.142-1.142h4.195c1.262 0 2.675-0.822 2.675-2.285 0-1.553-1.413-2.285-2.675-2.285h-1.572c-1.168 0-2.533 0.104-3.496-0.411-0.893-0.46-1.948-0.73-3.067-0.73-0.009 0-0.017 0-0.026 0h0.001c-1.887 0-3.576 0.753-4.734 1.939l-6.151 6.056 6.853 6.853 2.285-3.426h10.794c1.152 0 2.263-0.422 3.123-1.187l8.605-7.644c0.478-0.424 0.451-1.206-0.078-1.566z"></path>
</symbol>
<symbol id="icon-Chip" viewBox="0 0 32 32">
<path  d="M22.4 9.6h-12.8v12.8h12.8v-12.8z"></path>
<path  d="M30.4 17.6c0.96 0 1.6-0.64 1.6-1.6 0-0.8-0.64-1.6-1.6-1.6h-1.6v-3.2h1.6c0.96 0 1.6-0.64 1.6-1.6 0-0.8-0.64-1.6-1.6-1.6h-1.6v-1.6c0-1.76-1.44-3.2-3.2-3.2h-1.6v-1.6c0-0.8-0.64-1.6-1.6-1.6-0.8 0-1.6 0.64-1.6 1.6v1.6h-3.2v-1.6c0-0.8-0.64-1.6-1.6-1.6s-1.6 0.64-1.6 1.6v1.6h-3.2v-1.6c0-0.8-0.64-1.6-1.6-1.6s-1.6 0.64-1.6 1.6v1.6h-1.6c-1.76 0-3.2 1.44-3.2 3.2v1.6h-1.6c-0.96 0-1.6 0.64-1.6 1.6 0 0.8 0.64 1.6 1.6 1.6h1.6v3.2h-1.6c-0.96 0-1.6 0.64-1.6 1.6 0 0.8 0.64 1.6 1.6 1.6h1.6v3.2h-1.6c-0.96 0-1.6 0.64-1.6 1.6 0 0.8 0.64 1.6 1.6 1.6h1.6v1.6c0 1.76 1.44 3.2 3.2 3.2h1.6v1.6c0 0.8 0.64 1.6 1.6 1.6s1.6-0.64 1.6-1.6v-1.6h3.2v1.6c0 0.8 0.64 1.6 1.6 1.6s1.6-0.64 1.6-1.6v-1.6h3.2v1.6c0 0.8 0.64 1.6 1.6 1.6 0.8 0 1.6-0.64 1.6-1.6v-1.6h1.6c1.76 0 3.2-1.44 3.2-3.2v-1.6h1.6c0.96 0 1.6-0.64 1.6-1.6 0-0.8-0.64-1.6-1.6-1.6h-1.6v-3.2h1.6zM25.6 25.6h-19.2v-19.2h19.2v19.2z"></path>
</symbol>
<symbol id="icon-Dress" viewBox="0 0 30 32">
<path  d="M20.282 3.506v-3.506h-1.878v4.034c-1.25 0.556-2.276 1.425-3.007 2.509l-0.016 0.025-0.421 0.63-0.42-0.63c-0.747-1.109-1.772-1.978-2.978-2.517l-0.045-0.018v-4.034h-1.878v3.506c-0.282-0.040-0.608-0.064-0.939-0.064h-0v4.132c0 2.074 1.682 3.755 3.756 3.755h5.008c2.074-0 3.755-1.681 3.755-3.755v-4.132c-0.317 0-0.63 0.022-0.939 0.064zM19.342 13.208h-8.763l-10.578 16.525v0.063c4.477 1.399 9.624 2.204 14.96 2.204s10.483-0.806 15.327-2.302l-0.367 0.098v-0.063l-10.578-16.525z"></path>
</symbol>
<symbol id="icon-Camera" viewBox="0 0 38 32">
<path  d="M34.473 5.888h-4.999l-0.906-3.010c-0.406-1.318-1.612-2.259-3.039-2.259-0 0-0 0-0 0h-6.72c-1.4 0-2.635 0.918-3.038 2.259l-0.906 3.011h-11.691c-1.752 0-3.173 1.42-3.174 3.173v19.145c0 1.753 1.421 3.174 3.174 3.174v0h31.3c1.753 0 3.174-1.421 3.174-3.174v0-19.145c0-1.753-1.421-3.174-3.174-3.174v0zM22.148 26.93c-4.674 0-8.462-3.789-8.462-8.462s3.789-8.462 8.462-8.462v0c4.674 0 8.462 3.789 8.462 8.462s-3.789 8.462-8.462 8.462v0z"></path>
<path  d="M22.147 13.179c-0.021-0-0.046-0-0.071-0-2.921 0-5.289 2.368-5.289 5.289s2.368 5.289 5.289 5.289c0.025 0 0.050-0 0.074-0l-0.004 0c2.921 0 5.289-2.368 5.289-5.289s-2.368-5.289-5.289-5.289v0zM25.831 18.262c-0.499 0.499-1.739 0.065-2.773-0.968s-1.466-2.274-0.968-2.773c0.499-0.498 1.739-0.065 2.772 0.968s1.466 2.274 0.968 2.773zM10.393 4.223c0-0.775-0.628-1.401-1.401-1.401h-3.016c-0.774 0-1.401 0.628-1.401 1.401v0.706h5.818v-0.706z"></path>
</symbol>
<symbol id="icon-Airplane" viewBox="0 0 32 32">
<path  d="M31.096 0.904c-0.559-0.559-1.33-0.904-2.182-0.904-0.875 0-1.665 0.364-2.226 0.949l-0.001 0.001-6.556 6.831-15.998-5.294-3.357 3.358 13.334 8.21-6.747 7.030-4.327-0.71-3.036 3.035 6.362 2.228 2.228 6.362 3.035-3.035-0.71-4.327 7.030-6.747 8.21 13.334 3.358-3.358-5.294-15.998 6.832-6.555c0.585-0.563 0.949-1.352 0.949-2.227 0-0.853-0.346-1.624-0.904-2.183v0z"></path>
</symbol>
<symbol id="icon-Arrow-back" viewBox="0 0 46 32">
<path fill="#00aaa1" style="fill: var(--color1, #00aaa1)" d="M0.586 14.586c-0.362 0.362-0.586 0.862-0.586 1.414s0.224 1.052 0.586 1.414l12.728 12.728c0.359 0.347 0.849 0.561 1.389 0.561 1.105 0 2-0.895 2-2 0-0.54-0.214-1.030-0.562-1.39l0.001 0.001-11.314-11.314 11.314-11.314c0.335-0.357 0.541-0.838 0.541-1.368 0-1.105-0.895-2-2-2-0.53 0-1.012 0.206-1.37 0.543l0.001-0.001-12.728 12.726zM46 14h-44v4h44v-4z"></path>
</symbol>
<symbol id="icon-Minus" viewBox="0 0 181 32">
<path fill="#00aaa1" style="fill: var(--color1, #00aaa1)" d="M181.333 16c0 6.009-4.871 10.88-10.88 10.88h-159.573c-6.009 0-10.88-4.871-10.88-10.88s4.871-10.88 10.88-10.88h159.573c6.009 0 10.88 4.871 10.88 10.88z"></path>
</symbol>
<symbol id="icon-Plus" viewBox="0 0 32 32">
<path fill="#00aaa1" style="fill: var(--color1, #00aaa1)" d="M16 0c1.060 0 1.92 0.86 1.92 1.92v28.16c0 1.060-0.86 1.92-1.92 1.92s-1.92-0.86-1.92-1.92v-28.16c0-1.060 0.86-1.92 1.92-1.92z"></path>
<path fill="#00aaa1" style="fill: var(--color1, #00aaa1)" d="M32 16c0 1.060-0.86 1.92-1.92 1.92h-28.16c-1.060 0-1.92-0.86-1.92-1.92s0.86-1.92 1.92-1.92h28.16c1.060 0 1.92 0.86 1.92 1.92z"></path>
</symbol>
<symbol id="icon-Quotes" viewBox="0 0 50 32">
<path  d="M23.993 30.293c2.048-4.523 4.651-9.472 7.808-14.848s6.229-10.411 9.216-15.104h8.448c-2.133 5.035-4.395 10.411-6.784 16.128s-4.352 10.795-5.888 15.232h-12.288l-0.512-1.408zM0.569 30.293c2.048-4.523 4.608-9.472 7.68-14.848s6.101-10.411 9.088-15.104h8.576c-2.133 5.035-4.395 10.411-6.784 16.128-2.304 5.717-4.267 10.795-5.888 15.232h-12.288l-0.384-1.408z"></path>
</symbol>
<symbol id="icon-Hamburger" viewBox="0 0 44 32">
<path d="M2.181 27.636h40.082c1.205 0 2.181 0.977 2.181 2.181v0.002c0 1.205-0.977 2.181-2.181 2.181h-40.082c-1.205 0-2.181-0.977-2.181-2.181v-0.002c0-1.205 0.977-2.181 2.181-2.181z"></path>
<path d="M2.181 0h40.082c1.205 0 2.181 0.977 2.181 2.181v0.002c0 1.205-0.977 2.181-2.181 2.181h-40.082c-1.205 0-2.181-0.977-2.181-2.181v-0.002c0-1.205 0.977-2.181 2.181-2.181z"></path>
<path d="M19.959 13.092h22.304c1.205 0 2.181 0.977 2.181 2.181v0.002c0 1.205-0.977 2.181-2.181 2.181h-22.304c-1.205 0-2.181-0.977-2.181-2.181v-0.002c0-1.205 0.977-2.181 2.181-2.181z"></path>
</symbol>
<svg aria-hidden="true" style="position: absolute; width: 0; height: 0; overflow: hidden;" version="1.1" xmlns="http://www.w3.org/2000/svg" xmlns:xlink="http://www.w3.org/1999/xlink">
<defs>
<symbol id="icon-Arrow-r" viewBox="0 0 44 32">
<path d="M41.416 17.416c0.363-0.362 0.588-0.863 0.588-1.416s-0.225-1.054-0.588-1.416l-12.728-12.728c-0.362-0.362-0.863-0.587-1.416-0.587-1.106 0-2.003 0.897-2.003 2.003 0 0.553 0.224 1.054 0.587 1.416l11.316 11.312-11.316 11.312c-0.362 0.362-0.587 0.863-0.587 1.416 0 1.106 0.897 2.003 2.003 2.003 0.553 0 1.054-0.224 1.416-0.587v0l12.728-12.728zM0 18h40v-4h-40v4z"></path>
</symbol>
<symbol id="icon-Arrow-l" viewBox="0 0 44 32">
<path d="M2.588 14.584c-0.363 0.362-0.588 0.863-0.588 1.416s0.225 1.054 0.588 1.416l12.728 12.728c0.362 0.362 0.862 0.585 1.414 0.585 1.105 0 2.001-0.896 2.001-2.001 0-0.553-0.224-1.054-0.587-1.416l-11.312-11.312 11.312-11.312c0.363-0.362 0.587-0.863 0.587-1.416 0-1.105-0.896-2.001-2.001-2.001-0.552 0-1.052 0.224-1.414 0.585l-12.728 12.728zM44 14h-40v4h40v-4z"></path>
</symbol>
</defs>
</svg>



</defs>
</svg>