<svg xmlns="http://www.w3.org/2000/svg" aria-hidden="true" style="position:absolute;width:0;height:0;overflow:hidden"><defs><symbol id="icon-ctrl" viewBox="0 0 32 32"><path d="M23 14c-.278 0-.555-.116-.753-.341L16 6.519l-6.247 7.14a1 1 0 1 1-1.505-1.317l7-8a1 1 0 0 1 1.506 0l7 8A1 1 0 0 1 23.002 14z"/></symbol><symbol id="icon-close-button" viewBox="0 0 32 32"><path d="M32 3.224 28.776 0 16 12.776 3.224 0 0 3.224 12.776 16 0 28.776 3.224 32 16 19.224 28.776 32 32 28.776 19.224 16 32 3.224z"/></symbol><symbol id="icon-Health" viewBox="0 0 36 32"><path d="M17.722 2.943C9.992-3.819.164 2.122.002 10.175c-.04 2.053.552 4.052 1.731 5.895h7.644l1.36-2.266a1.038 1.038 0 0 1 1.764-.027l.002.004 2.869 4.508 4.182-8.827a1.04 1.04 0 0 1 1.854-.048l3.584 6.656h8.72c6.459-10.094-6.306-21.594-15.99-13.126z"/><path d="m23.456 17.602-2.904-5.394-4.107 8.67a1.04 1.04 0 0 1-1.813.116l-.002-.004-2.976-4.676-.797 1.328a1.038 1.038 0 0 1-.891.505H3.378c.206.216-.894-.882 13.613 13.55a1.04 1.04 0 0 0 1.466 0c14.283-14.21 13.406-13.334 13.613-13.55h-7.696c-.383 0-.734-.21-.915-.546z"/></symbol><symbol id="icon-Arrow-r" viewBox="0 0 44 32"><path d="M41.416 17.416c.363-.362.588-.863.588-1.416s-.225-1.054-.588-1.416L28.688 1.856a2.003 2.003 0 0 0-2.832 2.832L37.172 16 25.856 27.312a2.003 2.003 0 0 0 2.832 2.832l12.728-12.728zM0 18h40v-4H0v4z"/></symbol><symbol id="icon-Arrow-l" viewBox="0 0 44 32"><path d="M2.588 14.584C2.225 14.946 2 15.447 2 16s.225 1.054.588 1.416l12.728 12.728a2.001 2.001 0 0 0 2.828-2.832L6.832 16 18.144 4.688a2.001 2.001 0 0 0-2.828-2.832L2.588 14.584zM44 14H4v4h40v-4z"/></symbol><symbol id="icon-clock" viewBox="0 0 24 24"><path d="M23 12c0-3.037-1.232-5.789-3.222-7.778S15.037 1 12 1 6.211 2.232 4.222 4.222 1 8.963 1 12s1.232 5.789 3.222 7.778S8.963 23 12 23s5.789-1.232 7.778-3.222S23 15.037 23 12zm-2 0c0 2.486-1.006 4.734-2.636 6.364S14.486 21 12 21s-4.734-1.006-6.364-2.636S3 14.486 3 12s1.006-4.734 2.636-6.364S9.514 3 12 3s4.734 1.006 6.364 2.636S21 9.514 21 12zM11 6v6a1 1 0 0 0 .553.894l4 2a1 1 0 0 0 .895-1.789L13 11.382V6a1 1 0 0 0-2 0z"/></symbol><symbol id="icon-calendar" viewBox="0 0 32 32"><path d="M10 12h4v4h-4zm6 0h4v4h-4zm6 0h4v4h-4zM4 24h4v4H4zm6 0h4v4h-4zm6 0h4v4h-4zm-6-6h4v4h-4zm6 0h4v4h-4zm6 0h4v4h-4zM4 18h4v4H4zM26 0v2h-4V0H8v2H4V0H0v32h30V0h-4zm2 30H2V8h26v22z"/></symbol><symbol id="icon-Hamburger" viewBox="0 0 32 32"><path stroke-linecap="round" stroke-linejoin="round" stroke-width="2.286" d="M4 16h24M4 8h24M4 24h24"/></symbol><symbol id="icon-search" viewBox="0 0 32 32"><path d="M19.427 20.427a8.5 8.5 0 1 1 2-2l5.585 5.585c.55.55.546 1.431 0 1.976l-.023.023a1.398 1.398 0 0 1-1.976 0l-5.585-5.585zM14.5 20a6.5 6.5 0 1 0 0-13 6.5 6.5 0 0 0 0 13z"/></symbol><symbol id="icon-arrow-up" viewBox="0 0 20 20"><path d="M9 3.828 2.929 9.899 1.515 8.485 10 0l8.485 8.485-1.414 1.414L11 3.828V20H9V3.828z"/></symbol></defs></svg>